<svg version="1.1" xmlns="http://www.w3.org/2000/svg" viewBox="0 0 700.1090648058802 323.24609375" width="1400.2181296117603" height="646.4921875">
  <!-- svg-source:excalidraw -->
  
  <defs>
    <style class="style-fonts">
      @font-face {
        font-family: "Virgil";
        src: url("https://excalidraw.com/Virgil.woff2");
      }
      @font-face {
        font-family: "Cascadia";
        src: url("https://excalidraw.com/Cascadia.woff2");
      }
      @font-face {
        font-family: "Assistant";
        src: url("https://excalidraw.com/Assistant-Regular.woff2");
      }
    </style>
    
  </defs>
  <g stroke-linecap="round" transform="translate(138.48801683224735 165.390625) rotate(0 246.1640625 21.80859375)"><path d="M10.9 0 C106.77 1.37, 202.29 1.48, 481.42 0 M10.9 0 C135.87 1.75, 260.84 1.57, 481.42 0 M481.42 0 C490.07 1.38, 493.03 3.79, 492.33 10.9 M481.42 0 C489.65 0.45, 493.58 1.81, 492.33 10.9 M492.33 10.9 C493.16 18.12, 491.11 26.67, 492.33 32.71 M492.33 10.9 C491.76 17.61, 491.62 24.57, 492.33 32.71 M492.33 32.71 C492.5 38.78, 490.56 44.45, 481.42 43.62 M492.33 32.71 C491.89 37.88, 487.77 43.23, 481.42 43.62 M481.42 43.62 C327.9 44.73, 173.7 44.88, 10.9 43.62 M481.42 43.62 C350.02 42.33, 219.61 42.3, 10.9 43.62 M10.9 43.62 C3.39 45.05, 0.17 38.68, 0 32.71 M10.9 43.62 C2.25 45.78, -1.11 40.14, 0 32.71 M0 32.71 C-1.16 28, -1.25 25.38, 0 10.9 M0 32.71 C-0.82 26.97, 0.74 20.7, 0 10.9 M0 10.9 C1.44 3.25, 1.79 0.09, 10.9 0 M0 10.9 C-0.95 5.67, 2.2 -0.04, 10.9 0" stroke="#1e1e1e" stroke-width="2" fill="none"></path></g><g transform="translate(268.16218828000126 174.69921875) rotate(0 116.4898910522461 12.5)"><text x="116.4898910522461" y="17.52" font-family="Virgil, Segoe UI Emoji" font-size="20px" fill="#1e1e1e" text-anchor="middle" style="white-space: pre;" direction="ltr" dominant-baseline="alphabetic">Echo's interpreter layer</text></g><g stroke-linecap="round"><g transform="translate(168.79959141211327 132.3046875) rotate(0 0.18941835801120988 15.708984375)"><path d="M-0.5 -0.29 C-0.53 5.01, -0.2 26.73, -0.02 31.95 M0.25 0.75 C0.38 5.9, 0.99 26.15, 1.01 31.26" stroke="#1e1e1e" stroke-width="2" fill="none"></path></g><g transform="translate(168.79959141211327 132.3046875) rotate(0 0.18941835801120988 15.708984375)"><path d="M-4.64 16.61 C-3.16 20.92, -0.11 26.67, 1.01 31.26 M-4.64 16.61 C-3.62 19.76, -1.92 23.46, 1.01 31.26" stroke="#1e1e1e" stroke-width="2" fill="none"></path></g><g transform="translate(168.79959141211327 132.3046875) rotate(0 0.18941835801120988 15.708984375)"><path d="M6.1 16.4 C4.03 20.73, 3.52 26.55, 1.01 31.26 M6.1 16.4 C4.65 19.63, 3.86 23.37, 1.01 31.26" stroke="#1e1e1e" stroke-width="2" fill="none"></path></g></g><mask></mask><g transform="translate(115.98411058224735 68.91015625) rotate(0 72.99993133544922 25)"><text x="0" y="17.52" font-family="Virgil, Segoe UI Emoji" font-size="20px" fill="#1e1e1e" text-anchor="start" style="white-space: pre;" direction="ltr" dominant-baseline="alphabetic">user request:</text><text x="0" y="42.519999999999996" font-family="Virgil, Segoe UI Emoji" font-size="20px" fill="#1e1e1e" text-anchor="start" style="white-space: pre;" direction="ltr" dominant-baseline="alphabetic">"run my_file.py"</text></g><g stroke-linecap="round" transform="translate(141.02707933224735 269.62890625) rotate(0 246.1640625 21.80859375)"><path d="M10.9 0 C168.81 -0.16, 327.99 -0.79, 481.42 0 M10.9 0 C182.64 -1.49, 354.19 -1.32, 481.42 0 M481.42 0 C487.14 -1.34, 492.39 2.62, 492.33 10.9 M481.42 0 C489.45 1.28, 490.79 2.17, 492.33 10.9 M492.33 10.9 C491.68 17.59, 493.43 20.47, 492.33 32.71 M492.33 10.9 C493.21 16.48, 492.23 21.07, 492.33 32.71 M492.33 32.71 C490.91 38.06, 486.76 43.17, 481.42 43.62 M492.33 32.71 C492.78 41.77, 487.52 42.12, 481.42 43.62 M481.42 43.62 C313.86 44.37, 148.06 44.89, 10.9 43.62 M481.42 43.62 C328.07 41.6, 175.37 41.67, 10.9 43.62 M10.9 43.62 C3.79 42.77, 1.47 41.28, 0 32.71 M10.9 43.62 C4.29 41.59, -1.06 39.26, 0 32.71 M0 32.71 C0.45 28.89, -1.06 25.42, 0 10.9 M0 32.71 C0.5 25.28, -0.91 16.29, 0 10.9 M0 10.9 C0.6 3.46, 4.63 -0.92, 10.9 0 M0 10.9 C0.32 4.7, 3 1.52, 10.9 0" stroke="#2f9e44" stroke-width="2" fill="none"></path></g><g transform="translate(290.53122972287235 278.9375) rotate(0 96.659912109375 12.5)"><text x="96.659912109375" y="17.52" font-family="Virgil, Segoe UI Emoji" font-size="20px" fill="#2f9e44" text-anchor="middle" style="white-space: pre;" direction="ltr" dominant-baseline="alphabetic">CPython (python3.x)</text></g><g stroke-linecap="round"><g transform="translate(141.93723558224735 270.48828125) rotate(0 -0.080078125 -31.896484375)"><path d="M-0.37 1.07 C-0.44 -9.75, -0.02 -53.46, -0.07 -64.45 M1.64 0.59 C1.38 -10.12, -0.41 -52.48, -0.97 -63.26" stroke="#1e1e1e" stroke-width="2" fill="none"></path></g><g transform="translate(141.93723558224735 270.48828125) rotate(0 -0.080078125 -31.896484375)"><path d="M8.65 -40.19 C7.16 -47.72, 1.08 -56.41, -0.97 -63.26 M8.65 -40.19 C6.71 -45.11, 3.54 -50.74, -0.97 -63.26" stroke="#1e1e1e" stroke-width="2" fill="none"></path></g><g transform="translate(141.93723558224735 270.48828125) rotate(0 -0.080078125 -31.896484375)"><path d="M-8.43 -39.4 C-4.26 -47.14, -4.68 -56.09, -0.97 -63.26 M-8.43 -39.4 C-6.8 -44.63, -6.39 -50.42, -0.97 -63.26" stroke="#1e1e1e" stroke-width="2" fill="none"></path></g></g><mask></mask><g transform="translate(19.863016832247354 236) rotate(0 58.44995880126953 12.5)"><text x="0" y="17.52" font-family="Virgil, Segoe UI Emoji" font-size="20px" fill="#1e1e1e" text-anchor="start" style="white-space: pre;" direction="ltr" dominant-baseline="alphabetic">run echo VM</text></g><g stroke-linecap="round"><g transform="translate(222.96067308224735 210.8515625) rotate(0 0 29.3984375)"><path d="M-0.96 -0.63 C-0.9 9.23, -0.42 49.29, -0.38 59.26 M0.73 1.65 C0.68 11.13, -1.7 48.14, -1.53 57.38" stroke="#1e1e1e" stroke-width="2" fill="none"></path></g><g transform="translate(222.96067308224735 210.8515625) rotate(0 0 29.3984375)"><path d="M-9.41 33.65 C-8.61 38.63, -4.93 43.54, -1.53 57.38 M-9.41 33.65 C-6.92 41.82, -4.13 49.22, -1.53 57.38" stroke="#1e1e1e" stroke-width="2" fill="none"></path></g><g transform="translate(222.96067308224735 210.8515625) rotate(0 0 29.3984375)"><path d="M7.68 34.14 C4.49 38.87, 4.15 43.66, -1.53 57.38 M7.68 34.14 C4.49 42.17, 1.6 49.41, -1.53 57.38" stroke="#1e1e1e" stroke-width="2" fill="none"></path></g></g><mask></mask><g transform="translate(234.73411058224735 230.15625) rotate(0 103.43989562988281 12.5)"><text x="0" y="17.52" font-family="Virgil, Segoe UI Emoji" font-size="20px" fill="#1971c2" text-anchor="start" style="white-space: pre;" direction="ltr" dominant-baseline="alphabetic">compile() to bytecode</text></g><g stroke-linecap="round"><g transform="translate(495.69504808224735 266.0234375) rotate(0 0 -27.51171875)"><path d="M-1.08 0.15 C-1.35 -8.93, -0.83 -45.54, -0.84 -54.58 M0.55 -0.82 C0.6 -10.25, 1.32 -47.29, 1.43 -56.47" stroke="#1e1e1e" stroke-width="2" fill="none"></path></g><g transform="translate(495.69504808224735 266.0234375) rotate(0 0 -27.51171875)"><path d="M9.6 -32.85 C6.92 -42.86, 4.46 -51.86, 1.43 -56.47 M9.6 -32.85 C6.21 -41.68, 3.45 -51.05, 1.43 -56.47" stroke="#1e1e1e" stroke-width="2" fill="none"></path></g><g transform="translate(495.69504808224735 266.0234375) rotate(0 0 -27.51171875)"><path d="M-7.49 -33.12 C-4 -42.88, -0.28 -51.78, 1.43 -56.47 M-7.49 -33.12 C-4.41 -41.84, -0.69 -51.1, 1.43 -56.47" stroke="#1e1e1e" stroke-width="2" fill="none"></path></g></g><mask></mask><g transform="translate(513.9137980822474 231.3359375) rotate(0 42.609954833984375 12.5)"><text x="0" y="17.52" font-family="Virgil, Segoe UI Emoji" font-size="20px" fill="#1e1e1e" text-anchor="start" style="white-space: pre;" direction="ltr" dominant-baseline="alphabetic">bytecode</text></g><g stroke-linecap="round"><g transform="translate(537.791779035818 163.5859375) rotate(0 -0.21446926676037492 -20.888671875)"><path d="M-0.02 0.31 C-0.2 -6.7, -0.86 -35.29, -0.88 -42.31 M-0.69 -0.01 C-0.73 -6.95, 0.06 -35.01, 0.12 -41.88" stroke="#1e1e1e" stroke-width="2" fill="none"></path></g><g transform="translate(537.791779035818 163.5859375) rotate(0 -0.21446926676037492 -20.888671875)"><path d="M6.88 -22.11 C5.15 -29.76, 1.3 -35.2, 0.12 -41.88 M6.88 -22.11 C4.31 -27.59, 2.53 -33.83, 0.12 -41.88" stroke="#1e1e1e" stroke-width="2" fill="none"></path></g><g transform="translate(537.791779035818 163.5859375) rotate(0 -0.21446926676037492 -20.888671875)"><path d="M-7.41 -22.39 C-4.21 -29.94, -3.13 -35.29, 0.12 -41.88 M-7.41 -22.39 C-5.79 -27.77, -3.39 -33.92, 0.12 -41.88" stroke="#1e1e1e" stroke-width="2" fill="none"></path></g></g><mask></mask><g transform="translate(465.76926683224735 69.6796875) rotate(0 112.1698989868164 25)"><text x="112.1698989868164" y="17.52" font-family="Virgil, Segoe UI Emoji" font-size="20px" fill="#1e1e1e" text-anchor="middle" style="white-space: pre;" direction="ltr" dominant-baseline="alphabetic">run "lifted" bytecode in</text><text x="112.1698989868164" y="42.519999999999996" font-family="Virgil, Segoe UI Emoji" font-size="20px" fill="#1e1e1e" text-anchor="middle" style="white-space: pre;" direction="ltr" dominant-baseline="alphabetic">EModule(my_file)</text></g><g transform="translate(12.617930162325479 10) rotate(0 248.87789916992188 17.5)"><text x="248.87789916992188" y="24.528" font-family="Virgil, Segoe UI Emoji" font-size="28px" fill="#1971c2" text-anchor="middle" style="white-space: pre;" direction="ltr" dominant-baseline="alphabetic">Anatomy of ./bin/echo_vm my_file.py</text></g><g stroke-linecap="round"><g transform="translate(11.042704332247354 47.84375) rotate(0 254.759765625 0)"><path d="M-1.04 0.42 C83.93 0.24, 424.02 -0.01, 509.26 -0.23 M0.61 -0.41 C85.45 -0.48, 423.27 1.13, 508.18 1.18" stroke="#1971c2" stroke-width="2" fill="none"></path></g></g><mask></mask></svg>